<?xml version="1.0" encoding="utf-8"?>
<!-- Generator: Adobe Illustrator 22.1.0, SVG Export Plug-In . SVG Version: 6.00 Build 0)  -->
<svg version="1.1" id="Layer_1" xmlns="http://www.w3.org/2000/svg" xmlns:xlink="http://www.w3.org/1999/xlink" x="0px" y="0px"
	 viewBox="0 0 422 185" style="enable-background:new 0 0 422 185;" xml:space="preserve">
<style type="text/css">
	.st0{fill:#B1906E;}
	.st1{fill:#303030;}
	.st2{fill:#6D4C29;}
	.st3{fill:#906E4D;}
	.st4{fill:#513720;}
	.st5{fill:#808080;}
	.st6{fill:#48311B;}
	.st7{fill:#A4835E;}
	.st8{fill:#CCCCCC;}
	.st9{fill:#FFFFFF;}
	.st10{fill:#999999;}
	.st11{fill:#F1F1F1;}
</style>
<title>icon dat hang thanh cong</title>
<polygon class="st0" points="363.8,183.5 136,183.5 144.4,93.4 372.2,93.4 "/>
<path class="st1" d="M363.8,184.7H136c-0.7,0-1.2-0.6-1.2-1.3c0,0,0-0.1,0-0.1l8.4-90.1c0.1-0.6,0.6-1.1,1.2-1.1h227.8
	c0.7,0,1.3,0.6,1.3,1.2c0,0,0,0.1,0,0.1l-8.4,90.1C365,184.2,364.5,184.7,363.8,184.7z M137.4,182.2h225.3l8.1-87.6H145.5
	L137.4,182.2z"/>
<polygon class="st2" points="398.1,155.7 363.8,183.5 372.2,93.4 406.4,78.8 "/>
<path class="st1" d="M363.8,184.7c-0.7,0-1.2-0.6-1.3-1.2c0,0,0-0.1,0-0.1l8.4-90.1c0-0.5,0.3-0.9,0.8-1l34.2-14.6
	c0.6-0.3,1.4,0,1.6,0.7c0.1,0.2,0.1,0.4,0.1,0.6l-8.4,76.9c0,0.3-0.2,0.6-0.5,0.8l-34.2,27.7C364.4,184.6,364.1,184.7,363.8,184.7z
	 M373.4,94.3l-8,86.4l31.5-25.5l8.1-74.3L373.4,94.3z"/>
<polygon class="st3" points="406.4,78.8 180,78.8 144.4,93.4 372.2,93.4 "/>
<path class="st1" d="M372.2,94.6H144.4c-0.7,0-1.3-0.6-1.3-1.2c0-0.5,0.3-1,0.8-1.2l35.7-14.6c0.2-0.1,0.3-0.1,0.5-0.1h226.4
	c0.7,0,1.2,0.6,1.2,1.3c0,0.5-0.3,1-0.8,1.1l-34.2,14.6C372.5,94.6,372.3,94.6,372.2,94.6z M150.7,92.1h221.2L400.3,80h-220
	L150.7,92.1z"/>
<path class="st4" d="M385.7,85.1c0,2-47.4,3.7-105.9,3.7c-36.8,0-76.5-0.3-97.3-0.9c-11.2-0.3-8.6-2-8.6-2.8c0-2,47.4-3.7,105.9-3.7
	S385.7,83.1,385.7,85.1z"/>
<path class="st1" d="M262.4,133.6c-0.4-0.4-1-0.4-1.4,0c0,0,0,0,0,0l-21.2,20.1c-0.4,0.4-0.4,1-0.1,1.4c0.2,0.2,0.4,0.3,0.7,0.3
	c0.3,0,0.5-0.1,0.7-0.3l21.2-20.1C262.7,134.6,262.8,134,262.4,133.6"/>
<path class="st1" d="M240.9,148.5l18.1-17.2c0.4-0.4,0.4-1,0.1-1.4c-0.4-0.4-1-0.4-1.4,0c0,0,0,0,0,0l-18.1,17.2
	c-0.4,0.4-0.4,1-0.1,1.4c0.2,0.2,0.4,0.3,0.7,0.3C240.5,148.8,240.7,148.7,240.9,148.5"/>
<path class="st1" d="M240.6,142.1c0.3,0,0.5-0.1,0.7-0.3l11.4-10.9c0.4-0.4,0.4-1,0.1-1.4c-0.4-0.4-1-0.4-1.4,0c0,0,0,0,0,0l-3.2,3
	l-2.6-2.7c-0.4-0.4-1-0.4-1.4,0c0,0,0,0,0,0c-0.4,0.4-0.4,1-0.1,1.4l2.6,2.7l-2.4,2.2l-2.3-2.4c-0.4-0.4-1-0.4-1.4,0c0,0,0,0,0,0
	c-0.4,0.4-0.4,1-0.1,1.4l2.3,2.4l-3,2.8c-0.4,0.4-0.4,1-0.1,1.4C240.1,142,240.3,142.1,240.6,142.1"/>
<path class="st1" d="M251.3,126.4c0.2,0.2,0.4,0.3,0.7,0.3c0.3,0,0.5-0.1,0.7-0.3l6.3-6c0.4-0.4,0.4-1,0.1-1.4c-0.4-0.4-1-0.4-1.4,0
	c0,0,0,0,0,0l-6.3,6C251,125.4,250.9,126,251.3,126.4"/>
<path class="st1" d="M262.2,140.4c-0.4-0.4-1-0.4-1.4,0c0,0,0,0,0,0l-18.3,17.3c-0.4,0.4-0.4,1-0.1,1.4c0.2,0.2,0.4,0.3,0.7,0.3
	c0.3,0,0.5-0.1,0.7-0.3l18.3-17.3C262.6,141.5,262.6,140.8,262.2,140.4"/>
<path class="st1" d="M261.8,147.8c-0.4-0.4-1-0.4-1.4,0c0,0,0,0,0,0l-3.2,3.1c-0.1,0-0.1,0.1-0.2,0.1c-0.1,0.1-0.1,0.1-0.1,0.2
	l-3.4,3.2c-0.1,0-0.1,0.1-0.2,0.1c-0.1,0.1-0.1,0.1-0.1,0.2l-3.6,3.4c-0.4,0.4-0.4,1-0.1,1.4c0.2,0.2,0.4,0.3,0.7,0.3
	c0.3,0,0.5-0.1,0.7-0.3l3-2.8l2.3,2.4c0.2,0.2,0.4,0.3,0.7,0.3c0.3,0,0.5-0.1,0.7-0.3c0.4-0.4,0.4-1,0.1-1.4l-2.3-2.4l2.3-2.2
	l2.4,2.5c0.2,0.2,0.4,0.3,0.7,0.3c0.3,0,0.5-0.1,0.7-0.3c0.4-0.4,0.4-1,0.1-1.4l-2.4-2.5l2.7-2.5
	C262.1,148.8,262.1,148.2,261.8,147.8"/>
<path class="st1" d="M249.7,123.7c0.2,0.2,0.4,0.3,0.7,0.3c0.3,0,0.5-0.1,0.7-0.3c0.4-0.4,0.4-1,0.1-1.4l-2.9-3.1
	c-0.4-0.4-1-0.4-1.4,0c0,0,0,0,0,0c-0.4,0.4-0.4,1-0.1,1.4L249.7,123.7z"/>
<path class="st1" d="M252.4,121.2c0.2,0.2,0.4,0.3,0.7,0.3c0.3,0,0.5-0.1,0.7-0.3c0.4-0.4,0.4-1,0.1-1.4l-0.6-0.6
	c-0.4-0.4-1-0.4-1.4,0c0,0,0,0,0,0c-0.4,0.4-0.4,1-0.1,1.4L252.4,121.2z"/>
<polygon class="st5" points="115,165.5 52.4,162.3 116.3,159.6 "/>
<polygon class="st5" points="122.9,150.3 79.3,149.1 123.5,147.9 "/>
<polygon class="st5" points="132.6,119.1 0.3,116.2 133.8,113.2 "/>
<polygon class="st5" points="127,179.3 25,178 127.6,176.6 "/>
<path class="st6" d="M392.6,129.5l-13.6,8c-2.9,1.5-4.6-0.5-4.5-3.1c0.2-3.4,2.9-4.9,5.7-6.7l12.5-6.7c5-2.5,5.2,1.4,5.2,1.4
	C398.2,125.5,397,127.3,392.6,129.5z"/>
<path class="st1" d="M377.2,139c-0.7,0-1.3-0.2-1.9-0.5c-1.3-1-1.9-2.5-1.7-4.1c0.3-3.9,3.2-5.6,6-7.3l0.2-0.1l12.6-6.7
	c2.1-1,3.8-1.2,5-0.5c0.9,0.6,1.5,1.6,1.6,2.8c0.3,3.4-1.3,5.6-5.9,7.9l-13.6,8C378.8,138.8,378,139,377.2,139z M395.6,121.3
	c-0.8,0.1-1.6,0.3-2.4,0.7l-12.7,6.8c-2.7,1.6-4.8,2.9-5,5.8c-0.1,0.8,0.2,1.7,0.8,2.3c0.7,0.3,1.6,0.3,2.2-0.2l13.5-8
	c0,0,0,0,0.1,0c4.3-2.2,5-3.7,4.9-6c0-0.5-0.3-0.9-0.6-1.2C396.2,121.4,395.9,121.3,395.6,121.3z"/>
<path class="st7" d="M407.1,148.3c-3.5,0-7-0.7-10.4-1.9c-7.1-2.5-13.8-6.3-19.5-11.2c-0.6-0.5-0.6-1.4-0.1-2c0.5-0.6,1.4-0.6,2-0.1
	c5.5,4.6,11.8,8.2,18.6,10.6c6.4,2.3,12.8,2.3,17.2,0c1.7-0.7,3.1-2.2,3.8-4c0.4-1.3,0.1-2.8-0.6-3.9c-3.6-5.7-17.8-9.3-22.9-10.2
	c-0.8-0.1-1.3-0.9-1.1-1.6c0.1-0.8,0.9-1.3,1.6-1.1c0.8,0.1,19.8,3.6,24.8,11.5c1.2,1.8,1.6,4.1,1,6.2c-0.9,2.5-2.7,4.6-5.2,5.7
	C413.4,147.6,410.3,148.3,407.1,148.3z"/>
<path class="st8" d="M289.4,18.2c-4.6-2.8-31.7-16.5-32-16.6c-0.4-0.1-12.5,14.9-7,28.2"/>
<path class="st1" d="M249.3,30.3c-5.3-12.9,4.8-27.1,7-29.4c0.4-0.5,1-0.7,1.6-0.5c0.9,0.3,27.9,14.1,32.2,16.7l-1.3,2.1
	c-4.3-2.6-26.8-14-31.1-16.2c-2.3,2.8-10.6,15.3-6.1,26.2L249.3,30.3z"/>
<path class="st8" d="M384.2,57.3c-7.1-7.9-17.1-6.9-39.9-12.9c-22-5.8-52.8-25.1-62.6-30.8c-11.5-6.6-12.8,3.1-25.2,12.2
	c-15.7,11.5-34,11.5-41.8,11.5c-9,0.1-23.3,0.8-27.2-6.6c-1.2-2.4-2.7-4.6-4.4-6.7c-3.8-4.8-7.7,0.9-8.7,11.9
	c-0.9,10.8-0.9,21.6,0,32.4h157.7C347.5,68.4,374.7,64.8,384.2,57.3z"/>
<path class="st1" d="M332.1,69.6H173.2l-0.1-1.1c-0.9-10.9-0.9-21.8,0-32.7c0.4-4,1.7-13.3,6.2-14.6c1.1-0.3,2.9-0.3,4.7,2.1
	c1.7,2.2,3.2,4.5,4.5,6.9c3.4,6.3,15.4,6.1,24.2,6l2.4,0c8.3-0.1,25.6-0.2,40.6-11.3c3.2-2.4,6.1-5.1,8.8-8c5.2-5.4,9-9.3,17.8-4.3
	c1.2,0.7,2.8,1.6,4.7,2.7c12.5,7.4,38.5,22.8,57.6,27.9c7.3,1.9,13.3,3.2,18.2,4.1c10.7,2.2,17.2,3.5,22.3,9.2l0.9,1l-1.1,0.8
	C375.1,66,347.6,69.6,332.1,69.6z M175.5,67.1h156.5c15.1,0,40.3-3.5,50.2-10c-4.4-4.2-10.1-5.4-19.9-7.4c-4.9-1-11-2.2-18.4-4.2
	c-19.4-5.2-45.6-20.7-58.2-28.2c-1.8-1.1-3.4-2-4.6-2.7c-7.1-4.1-9.5-1.6-14.7,3.9c-2.8,3-5.8,5.8-9.1,8.3
	c-15.7,11.6-34.2,11.7-42.1,11.8l-2.4,0c-9.4,0.1-22.4,0.3-26.5-7.3c-1.2-2.3-2.6-4.5-4.2-6.5c-0.5-0.7-1.3-1.4-2.1-1.2
	c-1.6,0.5-3.7,4.6-4.4,12.4C174.8,46.4,174.7,56.8,175.5,67.1L175.5,67.1z"/>
<path class="st9" d="M385.1,58.4c-0.3-0.4-0.6-0.7-0.9-1.1c-9.5,7.5-36.7,11.1-52.1,11.1H174.4v12.7c0,3.3,2.4,5.2,6.2,5.2h127.2
	c36.9,0,55.8-3.8,64.5-6c11.9-3,14-3.3,14-15.3C386.3,59.7,385.9,59.5,385.1,58.4z"/>
<path class="st1" d="M307.8,87.5H180.6c-4.5,0-7.5-2.5-7.5-6.4v-14h159c15.8,0,42.4-3.8,51.3-10.8l0.9-0.7l0.8,0.9
	c0.3,0.4,0.6,0.7,0.9,1.1v0l0.1,0.1c1.1,1.3,1.4,2.1,1.4,7.3c0,12.3-2.5,13.4-14.3,16.4l-0.6,0.2C356.7,85.5,334.9,87.5,307.8,87.5z
	 M175.6,69.6v11.5c0,3.5,3.5,3.9,5,3.9h127.2c26.9,0,48.5-2,64.2-5.9l0.6-0.2C383.9,76.1,385,75.8,385,65c0-4.6-0.3-5-0.9-5.7
	l-0.1-0.1c0,0-0.1-0.1-0.1-0.1c-10.6,7.2-36.9,10.6-51.9,10.6H175.6z"/>
<path class="st1" d="M349.6,67.4c-4.7-19.2-13.5-25.5-15.6-26.2l0.7-2.4c4.4,1.3,12.9,10.1,17.3,28L349.6,67.4z"/>
<path class="st10" d="M276.6,21.8c-0.7,1.4-2.4,2-3.8,1.3c-1.4-0.7-2-2.4-1.3-3.8c0.7-1.4,2.4-2,3.8-1.3c0,0,0,0,0,0
	C276.7,18.7,277.3,20.4,276.6,21.8C276.6,21.8,276.6,21.8,276.6,21.8z"/>
<path class="st1" d="M274.1,24.1c-2,0-3.6-1.6-3.6-3.6c0-2,1.6-3.6,3.6-3.6c2,0,3.6,1.6,3.6,3.6c0,0.5-0.1,1.1-0.4,1.6
	C276.6,23.3,275.4,24.1,274.1,24.1z M274.1,18.5c-1.1,0-2.1,0.9-2.1,2.1c0,1.1,0.9,2.1,2.1,2.1c0.8,0,1.5-0.4,1.9-1.1v0
	c0.5-1,0.1-2.3-0.9-2.8C274.7,18.5,274.4,18.5,274.1,18.5z"/>
<path class="st10" d="M290.6,28.8c-0.7,1.4-2.4,2-3.8,1.3c-1.4-0.7-2-2.4-1.3-3.8c0.7-1.4,2.4-2,3.8-1.3
	C290.7,25.7,291.3,27.4,290.6,28.8C290.6,28.8,290.6,28.8,290.6,28.8z"/>
<path class="st1" d="M288.1,31.1c-2,0-3.6-1.6-3.6-3.6c0-2,1.6-3.6,3.6-3.6c2,0,3.6,1.6,3.6,3.6c0,0.6-0.1,1.1-0.4,1.6l0,0
	c-0.4,0.8-1.2,1.5-2.1,1.8C288.8,31.1,288.5,31.1,288.1,31.1z M288.1,25.5c-0.2,0-0.4,0-0.7,0.1c-1.1,0.4-1.7,1.5-1.3,2.6
	c0.4,1.1,1.5,1.7,2.6,1.3c0.5-0.2,1-0.5,1.2-1l0,0c0.5-1,0.1-2.3-0.9-2.8C288.7,25.6,288.4,25.5,288.1,25.5L288.1,25.5z"/>
<path class="st10" d="M301,34c-0.7,1.4-2.4,2-3.8,1.3c-1.4-0.7-2-2.4-1.3-3.8c0.7-1.4,2.4-2,3.8-1.3C301.2,30.9,301.7,32.6,301,34
	C301,34,301,34,301,34z"/>
<path class="st1" d="M298.5,36.3c-2,0-3.6-1.6-3.6-3.6c0-2,1.6-3.6,3.6-3.6c2,0,3.6,1.6,3.6,3.6c0,1.5-1,2.9-2.4,3.4
	C299.3,36.3,298.9,36.3,298.5,36.3z M298.5,30.7c-1.1,0-2.1,0.9-2.1,2.1c0,1.1,0.9,2.1,2.1,2.1c0.8,0,1.5-0.4,1.9-1.1v0
	c0.5-1,0.1-2.3-0.9-2.8C299.2,30.8,298.8,30.7,298.5,30.7z"/>
<path class="st10" d="M311.5,39.2c-0.7,1.4-2.4,2-3.8,1.3c-1.4-0.7-2-2.4-1.3-3.8c0.7-1.4,2.4-2,3.8-1.3
	C311.6,36.1,312.2,37.8,311.5,39.2L311.5,39.2z"/>
<path class="st1" d="M309,41.5c-2,0-3.6-1.6-3.6-3.6c0-2,1.6-3.6,3.6-3.6c2,0,3.6,1.6,3.6,3.6c0,0.6-0.1,1.1-0.4,1.6l0,0
	c-0.4,0.8-1.2,1.5-2.1,1.8C309.7,41.5,309.3,41.5,309,41.5z M309,35.9c-0.2,0-0.4,0-0.7,0.1c-1.1,0.4-1.7,1.5-1.3,2.6
	c0.4,1.1,1.5,1.7,2.6,1.3c0.5-0.2,1-0.5,1.2-1v0c0.5-1,0.1-2.3-0.9-2.8C309.6,36,309.3,35.9,309,35.9L309,35.9z"/>
<path class="st10" d="M321.9,44.4c-0.7,1.4-2.4,2-3.8,1.3c-1.4-0.7-2-2.4-1.3-3.8c0.7-1.4,2.4-2,3.8-1.3
	C322.1,41.3,322.6,43,321.9,44.4z"/>
<path class="st1" d="M319.4,46.7c-2,0-3.6-1.6-3.6-3.6s1.6-3.6,3.6-3.6c2,0,3.6,1.6,3.6,3.6c0,1.5-1,2.9-2.4,3.4
	C320.2,46.7,319.8,46.7,319.4,46.7z M319.4,41.1c-0.2,0-0.4,0-0.7,0.1c-1.1,0.4-1.7,1.5-1.3,2.6c0.4,1.1,1.5,1.7,2.6,1.3
	c0.5-0.2,1-0.5,1.2-1v0c0.5-1,0.1-2.3-0.9-2.8C320,41.2,319.7,41.1,319.4,41.1z"/>
<path class="st10" d="M332.7,49.2c-0.7,1.4-2.4,2-3.8,1.3c-1.4-0.7-2-2.4-1.3-3.8c0.7-1.4,2.4-2,3.8-1.3
	C332.8,46.1,333.3,47.8,332.7,49.2C332.7,49.2,332.7,49.2,332.7,49.2z"/>
<path class="st1" d="M330.1,51.5c-2,0-3.6-1.6-3.6-3.6c0-2,1.6-3.6,3.6-3.6s3.6,1.6,3.6,3.6c0,1.5-1,2.9-2.4,3.4
	C330.9,51.5,330.5,51.5,330.1,51.5z M330.1,45.9c-0.2,0-0.4,0-0.7,0.1c-1.1,0.4-1.7,1.5-1.3,2.6c0.4,1.1,1.5,1.7,2.6,1.3
	c0.5-0.2,1-0.5,1.2-1v0c0.5-1,0.1-2.3-0.9-2.8C330.8,46,330.5,45.9,330.1,45.9L330.1,45.9z"/>
<path class="st11" d="M288.1,26.8L288.1,26.8c-1.1-1-1.2-2.6-0.2-3.8l5.4-6.1c1-1.1,2.7-1.2,3.8-0.2l0,0c1.1,1,1.2,2.6,0.2,3.8
	l-5.4,6.1C290.9,27.6,289.2,27.7,288.1,26.8z"/>
<path class="st1" d="M289.9,28.2c-0.8,0-1.7-0.3-2.3-0.9l0,0c-1.4-1.3-1.6-3.5-0.3-4.9l5.4-6.1c1.3-1.4,3.4-1.6,4.9-0.3
	s1.6,3.4,0.3,4.9c0,0,0,0,0,0l-5.4,6.1C291.8,27.8,290.9,28.2,289.9,28.2z M288.6,26.2c0.8,0.7,1.9,0.6,2.6-0.2l5.4-6.1
	c0.7-0.8,0.6-1.9-0.2-2.6s-1.9-0.6-2.6,0.2l-5.4,6.1C287.8,24.3,287.9,25.5,288.6,26.2L288.6,26.2z"/>
<path class="st11" d="M298.9,32.4L298.9,32.4c-1.1-1-1.2-2.7-0.2-3.8l5.4-6.1c1-1.1,2.6-1.2,3.8-0.2l0,0c1.1,1,1.2,2.6,0.2,3.8
	l-5.4,6.1C301.7,33.3,300,33.4,298.9,32.4z"/>
<path class="st1" d="M300.6,33.9c-0.8,0-1.7-0.3-2.3-0.9v0c-1.4-1.3-1.6-3.5-0.3-4.9l5.4-6.1c1.3-1.4,3.5-1.6,4.9-0.3
	c1.4,1.3,1.6,3.4,0.3,4.9l-5.4,6.1C302.6,33.4,301.6,33.9,300.6,33.9z M299.4,31.8c0.8,0.7,1.9,0.6,2.6-0.2l5.4-6.1
	c0.7-0.8,0.6-1.9-0.2-2.6c-0.8-0.7-1.9-0.6-2.6,0.2l-5.4,6.1C298.6,29.9,298.6,31.1,299.4,31.8z"/>
<path class="st11" d="M309.6,37.5L309.6,37.5c-1.1-1-1.2-2.7-0.2-3.8l5.4-6.1c1-1.1,2.6-1.2,3.8-0.2l0,0c1.1,1,1.2,2.7,0.2,3.8
	l-5.4,6.1C312.4,38.4,310.7,38.5,309.6,37.5z"/>
<path class="st1" d="M311.3,39c-1.9,0-3.5-1.6-3.5-3.5c0-0.8,0.3-1.7,0.9-2.3l5.4-6.1c1.3-1.4,3.4-1.6,4.9-0.3
	c1.4,1.3,1.6,3.4,0.3,4.9c0,0,0,0,0,0l-5.4,6.1C313.3,38.6,312.3,39,311.3,39z M316.7,27.5c-0.5,0-1,0.2-1.4,0.6l-5.4,6.1
	c-0.7,0.8-0.6,1.9,0.2,2.6c0.8,0.7,1.9,0.6,2.6-0.2l5.4-6.1c0.7-0.8,0.6-1.9-0.2-2.6C317.6,27.7,317.2,27.5,316.7,27.5L316.7,27.5z"
	/>
<path class="st11" d="M319.7,42.7L319.7,42.7c-1.1-1-1.2-2.7-0.2-3.8l5.4-6.1c1-1.1,2.6-1.2,3.8-0.2l0,0c1.1,1,1.2,2.6,0.2,3.8
	l-5.4,6.1C322.5,43.6,320.8,43.7,319.7,42.7z"/>
<path class="st1" d="M321.5,44.2c-0.8,0-1.7-0.3-2.3-0.9l0,0c-1.4-1.3-1.6-3.5-0.3-4.9l5.4-6.1c1.3-1.4,3.5-1.6,4.9-0.3
	c1.4,1.3,1.6,3.4,0.3,4.9l-5.4,6.1C323.4,43.8,322.5,44.2,321.5,44.2z M320.3,42.1c0.8,0.7,1.9,0.6,2.6-0.2l5.4-6.1
	c0.7-0.8,0.6-1.9-0.2-2.6c-0.8-0.7-1.9-0.6-2.6,0.2l-5.4,6.1C319.4,40.3,319.5,41.4,320.3,42.1z"/>
<path class="st11" d="M330.1,47.1L330.1,47.1c-1.1-1-1.2-2.7-0.2-3.8l5.4-6.1c1-1.1,2.7-1.2,3.8-0.2l0,0c1.1,1,1.2,2.6,0.2,3.8
	l-5.4,6.1C332.9,48,331.2,48.1,330.1,47.1z"/>
<path class="st1" d="M331.9,48.6c-1.9,0-3.5-1.6-3.5-3.5c0-0.8,0.3-1.6,0.9-2.3l5.4-6.1c1.3-1.4,3.5-1.6,4.9-0.3
	c1.4,1.3,1.6,3.5,0.3,4.9l-5.4,6.1C333.8,48.2,332.9,48.6,331.9,48.6z M337.3,37.1c0,0-0.1,0-0.1,0c-0.5,0-0.9,0.3-1.3,0.6l-5.4,6.1
	c-0.7,0.8-0.6,1.9,0.2,2.6c0.8,0.7,1.9,0.6,2.6-0.2l0,0l5.4-6.1c0.7-0.8,0.6-1.9-0.2-2.6C338.2,37.3,337.7,37.1,337.3,37.1z"/>
<rect x="305.3" y="76.1" transform="matrix(0.4167 -0.9091 0.9091 0.4167 113.5704 331.6017)" class="st1" width="19.7" height="2.5"/>
<rect x="173.7" y="75" class="st1" width="142.9" height="2.1"/>
<path class="st1" d="M218.7,50.3c-1.2,0-2.4,0-3.6-0.1l0-1.5c1.6,0,3.3,0.1,5,0l0,1.5C219.7,50.3,219.2,50.3,218.7,50.3z
	 M222.1,50.3l0-1.5c1.7,0,3.3-0.1,5-0.3l0.1,1.5C225.5,50.1,223.8,50.2,222.1,50.3L222.1,50.3z M213.1,50.2c-1.7-0.1-3.3-0.2-5-0.3
	l0.1-1.5c1.7,0.1,3.3,0.2,5,0.3L213.1,50.2z M229.2,49.8l-0.1-1.5c1.7-0.2,3.3-0.4,4.9-0.6l0.2,1.5
	C232.6,49.5,230.9,49.7,229.2,49.8L229.2,49.8z M206.1,49.7c-1.7-0.2-3.4-0.4-5-0.6l0.2-1.5c1.6,0.2,3.3,0.4,4.9,0.6L206.1,49.7z
	 M236.2,48.9l-0.2-1.5c1.7-0.3,3.3-0.6,4.9-1l0.3,1.5C239.5,48.3,237.9,48.6,236.2,48.9L236.2,48.9z M199.1,48.8
	c-1.7-0.3-3.3-0.5-5-0.9l0.3-1.5c1.6,0.3,3.2,0.6,4.9,0.9L199.1,48.8z M192.1,47.5c-1.7-0.4-3.3-0.7-4.9-1.2l0.4-1.5
	c1.6,0.4,3.2,0.8,4.8,1.1L192.1,47.5z M243.1,47.4l-0.4-1.5c1.6-0.4,3.2-0.9,4.7-1.4l0.5,1.4C246.4,46.5,244.7,47,243.1,47.4
	L243.1,47.4z M185.3,45.8c-1.7-0.5-3.3-1-4.8-1.5l0.5-1.4c1.5,0.5,3.1,1,4.7,1.5L185.3,45.8z M249.8,45.3l-0.5-1.4
	c1.6-0.6,3.1-1.2,4.5-1.9l0.6,1.4C253,44.1,251.4,44.7,249.8,45.3L249.8,45.3z M178.6,43.6c-1.7-0.6-3.2-1.3-4.6-2l0.7-1.3
	c1.3,0.7,2.8,1.3,4.4,1.9L178.6,43.6z M256.3,42.5l-0.7-1.3c1.5-0.8,2.9-1.6,4.4-2.4l0.7,1.3C259.3,40.9,257.8,41.7,256.3,42.5
	L256.3,42.5z M262.5,39l-0.8-1.3c1.4-0.9,2.8-1.8,4.2-2.7l0.8,1.2C265.4,37.3,263.9,38.2,262.5,39L262.5,39z M268.4,35.2l-0.9-1.2
	c1.4-1,2.7-1.9,4-2.9l0.9,1.2C271.1,33.2,269.8,34.3,268.4,35.2L268.4,35.2z M274,31l-1-1.2c1.3-1.1,2.5-2.2,3.7-3.3l1,1.1
	C276.6,28.8,275.3,29.9,274,31L274,31z M279.3,26.2l-1.1-1.1c1.2-1.2,2.4-2.4,3.4-3.6l1.1,1C281.7,23.8,280.5,25,279.3,26.2
	L279.3,26.2z M284,21l-1.2-0.9c1-1.2,2-2.6,2.8-4l1.3,0.7C286.1,18.3,285.1,19.7,284,21L284,21z"/>
<path class="st1" d="M202.5,68.5c-0.4-1.6-1-3.1-1.8-4.5l1.3-0.7c0.8,1.5,1.4,3.2,1.9,4.8L202.5,68.5z M199.8,62.3
	c-0.8-1.4-1.7-2.8-2.7-4.1l1.2-0.9c1,1.4,2,2.8,2.8,4.3L199.8,62.3z M195.9,56.7c-1-1.3-2.2-2.5-3.3-3.6l1.1-1.1
	c1.2,1.2,2.4,2.4,3.4,3.7L195.9,56.7z M191.1,51.7c-1.2-1.1-2.5-2.1-3.8-3.1l0.9-1.2c1.4,1,2.7,2.1,3.9,3.2L191.1,51.7z M185.7,47.4
	c-1.3-0.9-2.7-1.8-4.2-2.7l0.8-1.3c1.5,0.9,2.9,1.8,4.3,2.7L185.7,47.4z M179.8,43.8c-1.4-0.8-2.9-1.5-4.4-2.2l0.6-1.4
	c1.6,0.7,3.1,1.5,4.5,2.3L179.8,43.8z M173.6,40.8l-0.2-0.1l0.6-1.4l0.2,0.1L173.6,40.8z"/>
<path class="st8" d="M178.4,41.7c7.3-2.8,11.6-5.7,13.1-7.2c-1.7-1.3-3.1-2.2-4-3.8c-1.2-2.2-2.7-4.3-4.4-6.2
	c-5.2-5.5-7.7,0.4-8.7,11.4c-0.8,9.8-0.9,19.6-0.2,29.4c0.2-3.2,0.3-11.4,1.4-17.2C175.9,46.4,176.9,42.7,178.4,41.7z"/>
<path class="st1" d="M175.4,65.4l-2.5,0c-0.7-9.9-0.6-19.7,0.2-29.6c0.9-9,2.5-13.4,5.3-14.4c1.7-0.6,3.6,0.2,5.6,2.3
	c1.7,2,3.3,4.1,4.5,6.4c0.8,1.2,1.9,2.3,3.1,3.1l1.7,1.3l-1,1c-1.7,1.7-6.2,4.6-13.3,7.4c-0.7,0.6-1.7,3-2.2,5.5
	c-0.7,4.7-1.2,9.4-1.3,14.1C175.5,63.6,175.4,64.6,175.4,65.4z M179.5,23.7c-0.1,0-0.2,0-0.3,0c-0.8,0.3-2.7,2-3.6,12.3
	c-0.3,3.1-0.5,6.2-0.6,9.2c0.5-1.7,1.4-3.7,2.7-4.5l0.2-0.1c4.1-1.5,7.9-3.5,11.5-5.9c-1.2-0.9-2.3-2-3.1-3.3
	c-1.2-2.1-2.6-4.1-4.2-5.9C181.1,24.3,180.2,23.7,179.5,23.7z"/>
</svg>
